<?xml version="1.0" standalone="no"?>
<!DOCTYPE svg PUBLIC "-//W3C//DTD SVG 20010904//EN"
 "http://www.w3.org/TR/2001/REC-SVG-20010904/DTD/svg10.dtd">
<svg version="1.0" xmlns="http://www.w3.org/2000/svg"
 width="300.000000pt" height="200.000000pt" viewBox="0 0 300.000000 200.000000"
 preserveAspectRatio="xMidYMid meet">
<metadata>
Created by potrace 1.10, written by Peter Selinger 2001-2011
</metadata>
<g transform="translate(0.000000,200.000000) scale(0.100000,-0.100000)"
fill="#000000" stroke="none">
<path d="M551 1254 c-20 -25 -21 -39 -21 -244 l0 -217 26 -24 c25 -24 30 -24
226 -27 220 -3 249 2 273 49 18 34 21 391 5 435 -20 52 -28 53 -267 54 l-222
0 -20 -26z m437 -5 c35 -13 51 -38 52 -76 0 -18 -2 -33 -5 -33 -2 0 -15 11
-29 25 -14 14 -34 25 -45 25 -22 0 -68 -37 -140 -112 -35 -37 -50 -46 -66 -42
-11 4 -22 10 -25 15 -3 4 -18 15 -34 23 -34 17 -57 9 -82 -29 -14 -21 -14 -27
-1 -52 9 -16 38 -50 66 -76 85 -80 116 -66 299 138 l62 70 0 -157 0 -157 -26
-20 c-25 -20 -40 -21 -219 -21 -259 0 -239 -21 -237 235 1 109 4 207 8 217 3
10 20 22 37 27 42 12 353 12 385 0z m-7 -89 c10 -6 19 -18 19 -28 0 -21 -219
-242 -240 -242 -9 0 -42 26 -74 59 -44 44 -57 64 -54 82 2 17 10 25 29 27 21
2 35 -6 63 -40 l37 -42 97 97 c53 53 98 97 100 97 2 0 12 -5 23 -10z"/>
<path d="M1275 1201 c-45 -27 -83 -77 -91 -117 -10 -55 1 -121 29 -163 35 -52
86 -75 169 -76 55 0 71 -4 90 -22 l24 -23 27 28 27 28 -25 14 c-31 17 -31 20
0 66 20 29 25 49 25 96 0 32 -6 71 -14 86 -19 36 -65 78 -99 91 -45 17 -128
13 -162 -8z m165 -69 c59 -44 58 -146 -1 -196 -47 -40 -110 -37 -155 8 -30 30
-34 40 -34 88 0 33 6 62 16 77 36 51 121 62 174 23z"/>
<path d="M1885 1035 l0 -185 33 0 c23 0 32 5 32 17 0 15 1 15 18 0 47 -43 136
-24 172 35 23 38 26 110 7 147 -31 61 -118 89 -167 52 -16 -11 -30 -21 -32
-21 -2 0 -2 31 0 70 l4 70 -34 0 -33 0 0 -185z m190 0 c70 -70 -31 -182 -103
-115 -29 27 -30 92 -2 120 28 28 75 26 105 -5z"/>
<path d="M2271 1102 c-52 -26 -76 -65 -76 -122 0 -87 73 -149 160 -135 85 12
135 84 115 168 -20 89 -116 132 -199 89z m116 -64 c33 -31 32 -90 -3 -117 -15
-12 -37 -21 -49 -21 -12 0 -34 9 -49 21 -33 26 -37 88 -6 119 27 27 77 26 107
-2z"/>
<path d="M1600 1009 c0 -55 5 -109 10 -120 27 -49 109 -60 154 -21 18 16 19
16 13 0 -5 -15 0 -18 28 -18 l35 0 0 130 0 130 -35 0 -36 0 2 -91 c3 -99 -7
-119 -57 -119 -43 0 -54 24 -54 121 l0 89 -30 0 -30 0 0 -101z"/>
</g>
</svg>
